<svg version="1.2" xmlns="http://www.w3.org/2000/svg" viewBox="0 0 1921 1055" width="1921" height="1055"><defs><linearGradient id="P" gradientUnits="userSpaceOnUse"/><linearGradient id="g1" x2="1" href="#P" gradientTransform="matrix(0,-1054.854,1920.193,0,960.097,1054.854)"><stop stop-color="#021825"/><stop offset=".15" stop-color="#021825"/><stop offset="1" stop-color="#2e82ef"/></linearGradient><linearGradient id="g2" x2="1" href="#P" gradientTransform="matrix(0,-1054.71,1920.062,0,960.13,1054.854)"><stop stop-color="#021825"/><stop offset=".15" stop-color="#021825"/><stop offset="1" stop-color="#2e82ef"/></linearGradient></defs><style>.a{opacity:.1;fill:url(#g1)}.b{fill:url(#g2)}</style><path class="a" d="m1920.2 675.2c0 0-85.9-337.8-386.7-270.2-300.8 67.5-439.4 0-538.3-145.2-98.8-145.1-352-126.9-574.6-79.2-222.6 47.8-302.4-21.5-420.6-180.6 0 0 0.1 1054.9 0.1 1054.9h1920.1z"/><path class="b" d="m1920.2 675.3c0 0-86.3-291.5-386-226.4-299.6 65.1-437.6 0-536.1-139.8-98.5-139.9-348.5-144.7-576.5-88.4-228.1 56.4-380-116.4-421.5-220.6 0.1 8 0 1054.8 0 1054.8h1920z"/></svg>